<svg xmlns="http://www.w3.org/2000/svg" width="1600" height="900" viewBox="0 0 1600 900" fill="none">
  <defs>
    <linearGradient id="g1" x1="0" y1="0" x2="1600" y2="900" gradientUnits="userSpaceOnUse">
      <stop stop-color="#0F172A" />
      <stop offset="1" stop-color="#1D4ED8" />
    </linearGradient>
    <linearGradient id="g2" x1="120" y1="180" x2="1480" y2="760" gradientUnits="userSpaceOnUse">
      <stop stop-color="#F8FAFC" stop-opacity="0.16" />
      <stop offset="1" stop-color="#93C5FD" stop-opacity="0.04" />
    </linearGradient>
  </defs>
  <rect width="1600" height="900" rx="48" fill="url(#g1)" />
  <circle cx="1260" cy="210" r="160" fill="#38BDF8" fill-opacity="0.18" />
  <circle cx="1320" cy="250" r="88" fill="#FDE68A" fill-opacity="0.18" />
  <rect x="118" y="146" width="676" height="520" rx="36" fill="url(#g2)" stroke="#F8FAFC" stroke-opacity="0.12" />
  <rect x="164" y="196" width="290" height="28" rx="14" fill="#F8FAFC" fill-opacity="0.72" />
  <rect x="164" y="250" width="548" height="22" rx="11" fill="#E2E8F0" fill-opacity="0.55" />
  <rect x="164" y="288" width="514" height="22" rx="11" fill="#E2E8F0" fill-opacity="0.42" />
  <rect x="164" y="352" width="612" height="112" rx="28" fill="#F8FAFC" fill-opacity="0.1" stroke="#F8FAFC" stroke-opacity="0.1" />
  <rect x="164" y="500" width="214" height="18" rx="9" fill="#93C5FD" fill-opacity="0.64" />
  <rect x="164" y="540" width="360" height="18" rx="9" fill="#E2E8F0" fill-opacity="0.44" />
  <rect x="890" y="148" width="540" height="160" rx="32" fill="#F8FAFC" fill-opacity="0.08" stroke="#F8FAFC" stroke-opacity="0.1" />
  <rect x="890" y="334" width="540" height="160" rx="32" fill="#F8FAFC" fill-opacity="0.08" stroke="#F8FAFC" stroke-opacity="0.1" />
  <rect x="890" y="520" width="540" height="160" rx="32" fill="#F8FAFC" fill-opacity="0.08" stroke="#F8FAFC" stroke-opacity="0.1" />
  <text x="160" y="96" fill="#F8FAFC" fill-opacity="0.9" font-family="Arial, Helvetica, sans-serif" font-size="34" font-weight="700">News Aggregator</text>
</svg>
